<?xml version="1.0" encoding="UTF-8" standalone="no"?>
<!-- Created with Inkscape (http://www.inkscape.org/) -->

<svg
   xmlns:dc="http://purl.org/dc/elements/1.1/"
   xmlns:cc="http://creativecommons.org/ns#"
   xmlns:rdf="http://www.w3.org/1999/02/22-rdf-syntax-ns#"
   xmlns:svg="http://www.w3.org/2000/svg"
   xmlns="http://www.w3.org/2000/svg"
   xmlns:sodipodi="http://sodipodi.sourceforge.net/DTD/sodipodi-0.dtd"
   xmlns:inkscape="http://www.inkscape.org/namespaces/inkscape"
   version="1.1"
   width="720.0025"
   height="240"
   id="svg2"
   xml:space="preserve"
   inkscape:version="0.48.2 r9819"
   sodipodi:docname="anchor_logo_3-1_ratio.svg"
   inkscape:export-filename="/home/barney/Desktop/anchor_logo_3-1_ratio_240x80.png"
   inkscape:export-xdpi="30"
   inkscape:export-ydpi="30"><sodipodi:namedview
     pagecolor="#ffffff"
     bordercolor="#666666"
     borderopacity="1"
     objecttolerance="10"
     gridtolerance="10"
     guidetolerance="10"
     inkscape:pageopacity="0"
     inkscape:pageshadow="2"
     inkscape:window-width="1680"
     inkscape:window-height="975"
     id="namedview18"
     showgrid="false"
     fit-margin-top="19.01"
     fit-margin-left="28"
     fit-margin-right="27.99"
     fit-margin-bottom="19.01"
     inkscape:zoom="1"
     inkscape:cx="360.00626"
     inkscape:cy="119.99753"
     inkscape:window-x="0"
     inkscape:window-y="24"
     inkscape:window-maximized="1"
     inkscape:current-layer="svg2" /><metadata
     id="metadata8"><rdf:RDF><cc:Work
         rdf:about=""><dc:format>image/svg+xml</dc:format><dc:type
           rdf:resource="http://purl.org/dc/dcmitype/StillImage" /><dc:title></dc:title></cc:Work></rdf:RDF></metadata><defs
     id="defs6"><clipPath
       id="clipPath18"><path
         d="m 0,0 5312,0 0,1988.59 -5312,0 L 0,0 z"
         id="path20"
         inkscape:connector-curvature="0" /></clipPath></defs><g
     transform="matrix(1.25,0,0,-1.25,28,267.58862)"
     id="g10"><g
       id="g3908"><path
         d="M 95.8801,147.475 0,112.05 95.3574,77.4078 c -2.7097,9.4203 -5.2367,23.0762 -5.1512,36.0622 0.0754,12.526 3.0208,24.739 5.6739,34.005"
         id="path60"
         style="fill:#356895;fill-opacity:1;fill-rule:nonzero;stroke:none"
         inkscape:connector-curvature="0" /><path
         d="m 122.085,101.015 0,7.63 c 0,2.205 -1.085,3.309 -3.254,3.309 -2.173,0 -3.261,-1.104 -3.261,-3.309 l 0,-7.63 c 0,-2.2041 1.088,-3.3138 3.261,-3.3138 2.169,0 3.254,1.1097 3.254,3.3138 z m 16.083,-13.7509 -19.337,0 c -5.911,0 -10.723,1.1597 -14.456,3.4679 -4.6191,2.8461 -6.9195,7.2508 -6.9195,13.229 l 0,0.58 c 0,5.97 2.3004,10.379 6.9195,13.225 3.733,2.309 8.545,3.471 14.456,3.471 -0.612,0 0.235,-0.1 2.545,-0.289 l 0,7.21 c 0,2.019 -1.021,3.023 -3.056,3.023 -1.837,0 -2.75,-1.004 -2.75,-3.023 l 0,-4.334 -18.1145,-0.115 c 0,5.458 1.5894,9.2 4.7815,11.569 3.185,2.369 8.246,3.552 15.17,3.552 6.917,0 11.974,-1.01 15.161,-3.024 3.731,-2.36 5.6,-6.306 5.6,-11.836 l 0,-36.7059"
         id="path62"
         style="fill:#356895;fill-opacity:1;fill-rule:nonzero;stroke:none"
         inkscape:connector-curvature="0" /><path
         d="m 198.478,80.3719 -22.373,0 0,46.5381 c 0,2.967 -1.18,4.458 -3.532,4.458 -2.1,0 -3.155,-1.521 -3.155,-4.554 l 0,-46.4421 -22.372,0 0,63.7271 36.214,0 c 10.151,0 15.218,-5.539 15.218,-16.603 l 0,-47.1241"
         id="path64"
         style="fill:#356895;fill-opacity:1;fill-rule:nonzero;stroke:none"
         inkscape:connector-curvature="0" /><path
         d="m 360.731,97.1922 0,31.7308 c 0,2.781 -1.374,4.176 -4.142,4.176 -2.76,0 -4.142,-1.395 -4.142,-4.176 l 0,-31.7308 c 0,-2.7813 1.382,-4.1703 4.142,-4.1703 2.768,0 4.142,1.389 4.142,4.1703 z m 22.817,3.7388 c 0,-7.529 -2.905,-13.081 -8.73,-16.656 -4.704,-2.9211 -10.782,-4.373 -18.229,-4.373 -7.447,0 -13.525,1.4519 -18.225,4.373 -5.828,3.575 -8.737,9.127 -8.737,16.656 l 0,22.946 c 0,7.525 2.909,13.078 8.737,16.656 4.7,2.913 10.778,4.373 18.225,4.373 7.447,0 13.525,-1.46 18.229,-4.373 5.825,-3.578 8.73,-9.131 8.73,-16.656 l 0,-22.946"
         id="path66"
         style="fill:#356895;fill-opacity:1;fill-rule:nonzero;stroke:none"
         inkscape:connector-curvature="0" /><path
         d="m 434.057,114.047 -17.76,0 0,10.274 c 0,2.161 -1.071,3.238 -3.193,3.238 -2.129,0 -3.197,-1.085 -3.197,-3.255 l 0,-37.1688 -17.76,0 0,50.5558 20.957,0 c 5.789,0 10.511,-1.132 14.171,-3.392 4.526,-2.777 6.782,-7.088 6.782,-12.929 l 0,-7.323"
         id="path68"
         style="fill:#356895;fill-opacity:1;fill-rule:nonzero;stroke:none"
         inkscape:connector-curvature="0" /><path
         d="m 435.639,77.4078 95.571,35.0162 -96.31,34.9 c 2.707,-9.417 5.977,-22.339 5.89,-35.326 -0.08,-12.521 -2.498,-25.3218 -5.151,-34.5902"
         id="path70"
         style="fill:#356895;fill-opacity:1;fill-rule:nonzero;stroke:none"
         inkscape:connector-curvature="0" /><path
         d="m 247.529,135.047 c 0,2.903 -2.445,4.36 -5.465,4.36 -3.005,0 -4.507,-1.457 -4.507,-4.36 l 0,-39.4591 c 0,-3.9231 1.647,-5.8867 4.954,-5.8867 3.307,0 4.961,2.0738 4.961,6.2117 l 0,11.1261 25.772,0 0.092,-1.871 c 0,-11.1008 -3.128,-19.016 -9.202,-23.7649 -5.047,-3.9453 -11.724,-5.914 -21.606,-5.914 -8.955,0 -16.257,1.7578 -21.912,5.2531 -6.998,4.3058 -10.502,10.975 -10.502,20.0198 l 0,27.574 c 0,9.044 3.504,15.71 10.502,20.016 5.669,3.508 12.978,5.255 21.94,5.255 9.467,0 16.879,-2.04 22.241,-6.127 5.558,-4.299 8.343,-10.466 8.343,-18.484 l 0,-12.054 -25.668,0 0.057,18.105"
         id="path72"
         style="fill:#356895;fill-opacity:1;fill-rule:nonzero;stroke:none"
         inkscape:connector-curvature="0" /><path
         d="m 247.627,70.9898 0,-33.7109 30.272,0 0,55.641 c -0.888,-3.0949 -3.963,-11.0418 -9.472,-15.0949 -7.25,-5.334 -13.416,-6.75 -20.8,-6.8352"
         id="path74"
         style="fill:#356895;fill-opacity:1;fill-rule:nonzero;stroke:none"
         inkscape:connector-curvature="0" /><path
         d="m 297.692,156.83 -19.038,0 0,42.029 -30.84,0 0,-40.195 c 5.33,-0.094 15.524,-2.135 21.905,-8.517 2.129,-2.129 4.161,-4.818 5.215,-6.785 1.635,-2.858 2.64,-6.101 3.024,-9.717 0.21,3.75 2.287,5.63 5.013,5.63 3.219,0 5.191,-2.042 5.191,-6.14 l 0,-71.2522 30.484,0 0,72.0682 c 0,15.249 -6.981,22.879 -20.954,22.879"
         id="path76"
         style="fill:#356895;fill-opacity:1;fill-rule:nonzero;stroke:none"
         inkscape:connector-curvature="0" /></g></g></svg>