<?xml version="1.0" encoding="UTF-8" standalone="no"?>
<!-- Generator: Adobe Illustrator 16.2.1, SVG Export Plug-In . SVG Version: 6.00 Build 0)  -->

<svg
   xmlns:dc="http://purl.org/dc/elements/1.1/"
   xmlns:cc="http://creativecommons.org/ns#"
   xmlns:rdf="http://www.w3.org/1999/02/22-rdf-syntax-ns#"
   xmlns:svg="http://www.w3.org/2000/svg"
   xmlns="http://www.w3.org/2000/svg"
   xmlns:sodipodi="http://sodipodi.sourceforge.net/DTD/sodipodi-0.dtd"
   xmlns:inkscape="http://www.inkscape.org/namespaces/inkscape"
   version="1.2"
   id="Layer_1"
   x="0px"
   y="0px"
   width="14"
   height="11.87"
   viewBox="0 0 14 11.87"
   xml:space="preserve"
   inkscape:version="0.48.5 r10040"
   sodipodi:docname="github.svg"><metadata
     id="metadata13"><rdf:RDF><cc:Work
         rdf:about=""><dc:format>image/svg+xml</dc:format><dc:type
           rdf:resource="http://purl.org/dc/dcmitype/StillImage" /></cc:Work></rdf:RDF></metadata><defs
     id="defs11" /><sodipodi:namedview
     pagecolor="#ffffff"
     bordercolor="#666666"
     borderopacity="1"
     objecttolerance="10"
     gridtolerance="10"
     guidetolerance="10"
     inkscape:pageopacity="0"
     inkscape:pageshadow="2"
     inkscape:window-width="640"
     inkscape:window-height="480"
     id="namedview9"
     showgrid="false"
     inkscape:zoom="9.8333333"
     inkscape:cx="1.7796609"
     inkscape:cy="3.8727966"
     inkscape:window-x="0"
     inkscape:window-y="27"
     inkscape:window-maximized="0"
     inkscape:current-layer="g5"
     fit-margin-top="0"
     fit-margin-left="0"
     fit-margin-right="0"
     fit-margin-bottom="0" /><g
     id="g3"
     transform="translate(-0.22033906,-12.065)"><g
       id="g5"><path
         d="m 9.655339,18.973 c 0.269,0 0.492,0.133 0.686,0.396 0.192,0.265 0.294,0.588 0.294,0.975 0,0.385 -0.102,0.711 -0.294,0.973 -0.193,0.265 -0.417,0.396 -0.686,0.396 -0.278,0 -0.522,-0.131 -0.715,-0.396 -0.192,-0.262 -0.294,-0.588 -0.294,-0.973 0,-0.387 0.102,-0.71 0.294,-0.975 0.192,-0.264 0.436,-0.396 0.715,-0.396 m 3.44,-3.559 c 0.746,0.811 1.125,1.795 1.125,2.953 0,0.748 -0.086,1.423 -0.259,2.023 -0.175,0.597 -0.394,1.084 -0.654,1.459 -0.264,0.376 -0.588,0.705 -0.974,0.989 -0.386,0.286 -0.741,0.492 -1.065,0.623 -0.325,0.132 -0.695,0.233 -1.111,0.306 -0.417,0.071 -0.726,0.111 -0.943,0.123 -0.213,0.009 -0.438,0.014 -0.685,0.014 -0.055,0 -0.243,0.004 -0.547,0.015 -0.301,0.013 -0.56,0.016 -0.762,0.016 -0.202,0 -0.461,-0.003 -0.762,-0.016 -0.304,-0.011 -0.492,-0.015 -0.547,-0.015 -0.246,0 -0.472,-0.005 -0.685,-0.014 -0.218,-0.012 -0.526,-0.052 -0.943,-0.123 -0.423,-0.072 -0.786,-0.174 -1.111,-0.306 -0.324,-0.131 -0.68,-0.337 -1.064,-0.623 -0.387,-0.284 -0.711,-0.613 -0.975,-0.989 -0.26100001,-0.375 -0.47900001,-0.862 -0.65400001,-1.459 -0.173,-0.6 -0.259,-1.275 -0.259,-2.023 0,-1.158 0.379,-2.143 1.12500001,-2.953 -0.082,-0.041 -0.085,-0.447 -0.008,-1.217 0.063,-0.771 0.227,-1.482 0.495,-2.132 0.934,0.099 2.09,0.629 3.471,1.581 0.466,-0.119 1.101,-0.183 1.917,-0.183 0.852,0 1.491,0.064 1.918,0.184 0.629,-0.425 1.23,-0.771 1.805,-1.034 0.584,-0.261 1.005,-0.416 1.269,-0.457 l 0.396,-0.09 c 0.27,0.649 0.434,1.36 0.496,2.132 0.076,0.769 0.073,1.175 -0.009,1.216 m -5.845,7.82 c 1.688,0 2.954,-0.202 3.821,-0.607 0.855,-0.404 1.292,-1.238 1.292,-2.496 0,-0.73 -0.273,-1.34 -0.822,-1.828 -0.278,-0.263 -0.613,-0.425 -0.989,-0.486 -0.375,-0.061 -0.949,-0.061 -1.72,0 -0.769,0.062 -1.298,0.09 -1.582,0.09 -0.385,0 -0.8,-0.018 -1.319,-0.059 -0.52,-0.04 -0.928,-0.065 -1.223,-0.078 -0.294,-0.009 -0.609,0.027 -0.958,0.108 -0.345,0.082 -0.629,0.224 -0.853,0.425 -0.521,0.469 -0.79,1.077 -0.79,1.828 0,1.258 0.426,2.092 1.28,2.496 0.85,0.405 2.113,0.607 3.802,0.607 h 0.061 m -2.434,-4.261 c 0.268,0 0.492,0.133 0.685,0.396 0.192,0.265 0.294,0.588 0.294,0.975 0,0.385 -0.102,0.711 -0.294,0.973 -0.192,0.265 -0.417,0.396 -0.685,0.396 -0.279,0 -0.522,-0.131 -0.716,-0.396 -0.192,-0.262 -0.294,-0.588 -0.294,-0.973 0,-0.387 0.102,-0.71 0.294,-0.975 0.193,-0.264 0.436,-0.396 0.716,-0.396"
         id="path7"
         style="fill:#ffffff"
         inkscape:connector-curvature="0" /></g></g></svg>