<?xml version="1.0" encoding="UTF-8" standalone="no"?>
<!-- Created with Inkscape (http://www.inkscape.org/) -->

<svg
   xmlns:dc="http://purl.org/dc/elements/1.1/"
   xmlns:cc="http://creativecommons.org/ns#"
   xmlns:rdf="http://www.w3.org/1999/02/22-rdf-syntax-ns#"
   xmlns:svg="http://www.w3.org/2000/svg"
   xmlns="http://www.w3.org/2000/svg"
   xmlns:sodipodi="http://sodipodi.sourceforge.net/DTD/sodipodi-0.dtd"
   xmlns:inkscape="http://www.inkscape.org/namespaces/inkscape"
   width="1052.3622"
   height="744.09448"
   id="svg2"
   version="1.1"
   inkscape:version="0.48.4 r9939"
   sodipodi:docname="title.svg"
   inkscape:export-filename="/home/sio/doc/presentations/openstack-2014-11-25-selling-mist/img/title.png"
   inkscape:export-xdpi="90"
   inkscape:export-ydpi="90">
  <defs
     id="defs4">
    <clipPath
       id="clipPath18">
      <path
         inkscape:connector-curvature="0"
         id="path20"
         d="m 0,0 5312,0 0,1988.59 -5312,0 L 0,0 z" />
    </clipPath>
  </defs>
  <sodipodi:namedview
     id="base"
     pagecolor="#ffffff"
     bordercolor="#666666"
     borderopacity="1.0"
     inkscape:pageopacity="0.0"
     inkscape:pageshadow="2"
     inkscape:zoom="0.49497475"
     inkscape:cx="862.36562"
     inkscape:cy="380.59895"
     inkscape:document-units="px"
     inkscape:current-layer="layer1"
     showgrid="false"
     inkscape:window-width="1598"
     inkscape:window-height="875"
     inkscape:window-x="962"
     inkscape:window-y="24"
     inkscape:window-maximized="0" />
  <metadata
     id="metadata7">
    <rdf:RDF>
      <cc:Work
         rdf:about="">
        <dc:format>image/svg+xml</dc:format>
        <dc:type
           rdf:resource="http://purl.org/dc/dcmitype/StillImage" />
        <dc:title />
      </cc:Work>
    </rdf:RDF>
  </metadata>
  <g
     inkscape:label="Layer 1"
     inkscape:groupmode="layer"
     id="layer1"
     transform="translate(0,-308.2677)">
    <rect
       style="fill:#000000;stroke:#ffffff;stroke-width:1.37637675;stroke-miterlimit:4;stroke-opacity:1;stroke-dasharray:none"
       id="rect3192"
       width="1058.6398"
       height="983.40137"
       x="-2.0203052"
       y="210.84877" />
    <flowRoot
       xml:space="preserve"
       id="flowRoot2982"
       style="fill:black;stroke:none;stroke-opacity:1;stroke-width:1px;stroke-linejoin:miter;stroke-linecap:butt;fill-opacity:1;font-family:Syntax-UltraBlack;font-style:normal;font-weight:900;font-size:72px;line-height:125%;letter-spacing:0px;word-spacing:0px;-inkscape-font-specification:Syntax-UltraBlack Heavy;font-stretch:normal;font-variant:normal"><flowRegion
         id="flowRegion2984"><rect
           id="rect2986"
           width="657.14288"
           height="157.14285"
           x="140"
           y="166.95163"
           style="-inkscape-font-specification:Syntax-UltraBlack Heavy;font-family:Syntax-UltraBlack;font-weight:900;font-style:normal;font-stretch:normal;font-variant:normal;font-size:72px" /></flowRegion><flowPara
         id="flowPara2988" /></flowRoot>    <g
       style="font-size:54.01174927000000281px;font-style:normal;font-weight:normal;line-height:125%;letter-spacing:0px;word-spacing:0px;fill:#ffffff;fill-opacity:1;stroke:none;font-family:Sans"
       id="text2990">
      <path
         d="m 169.45163,492.52121 c 3.88884,0.58333 7.97213,1.03702 12.24987,1.3611 4.27771,0.38888 8.58784,0.58332 12.93041,0.58332 19.12011,0 28.68018,-8.13416 28.68024,-24.4025 -6e-5,-5.12029 -1.32875,-9.39802 -3.98607,-12.8332 -2.59261,-3.4351 -6.41664,-5.60637 -11.47209,-6.51381 l -11.18043,-2.04165 c -1.42594,-0.25921 -2.43056,-0.64809 -3.01386,-1.16665 -0.51854,-0.51847 -0.7778,-1.16661 -0.77777,-1.94442 -3e-5,-1.36105 0.64811,-2.43048 1.94442,-3.2083 1.36107,-0.77772 4.01844,-1.1666 7.97214,-1.16666 2.46289,6e-5 5.31471,0.16209 8.55546,0.48611 3.24065,0.32412 6.02766,0.71301 8.36102,1.16665 l 1.8472,-17.59702 c -3.37039,-0.58326 -6.93516,-1.03696 -10.69433,-1.3611 -3.69444,-0.38881 -7.68051,-0.58326 -11.9582,-0.58333 -4.66664,7e-5 -8.84715,0.38896 -12.54153,1.16666 -3.69442,0.71302 -6.93512,1.97689 -9.72211,3.79162 -2.78701,1.75005 -4.95828,4.18057 -6.51382,7.29159 -1.55554,3.11113 -2.33331,6.99997 -2.3333,11.66654 -1e-5,1.94446 0.29166,3.9861 0.87499,6.12493 0.64813,2.07409 1.62034,4.08332 2.91663,6.02771 1.36109,1.87964 3.11107,3.5324 5.24994,4.95828 2.13885,1.36112 4.6666,2.26852 7.58325,2.72219 l 10.111,1.45832 c 1.36107,0.19446 2.30087,0.58335 2.81941,1.16665 0.5833,0.51854 0.87496,1.39353 0.87499,2.62497 -3e-5,1.36112 -0.87502,2.33333 -2.62497,2.91664 -1.68519,0.51853 -4.69904,0.77778 -9.04156,0.77776 -2.2037,2e-5 -4.60182,-0.12961 -7.19437,-0.38888 -2.52776,-0.32405 -5.08791,-0.71294 -7.68047,-1.16665 l -2.23609,18.08313"
         style="font-size:97.22114562999999521px;font-variant:normal;font-weight:900;font-stretch:normal;text-align:center;text-anchor:middle;font-family:Syntax-UltraBlack;-inkscape-font-specification:Syntax-UltraBlack Heavy;fill:#ffffff"
         id="path3043" />
      <path
         d="m 229.5662,492.52121 55.12439,0 0.19445,-17.88869 -31.40243,0 0.0972,-7.19437 31.30521,0 0.19444,-17.30536 -31.30521,0 0,-6.99992 31.30521,0 0.19444,-17.88869 -55.22161,0 -0.48611,67.27703"
         style="font-size:97.22114562999999521px;font-variant:normal;font-weight:900;font-stretch:normal;text-align:center;text-anchor:middle;font-family:Syntax-UltraBlack;-inkscape-font-specification:Syntax-UltraBlack Heavy;fill:#ffffff"
         id="path3045" />
      <path
         d="m 294.50689,492.52121 56.38827,0 0.19444,-19.83311 -32.27742,0 0.58333,-47.44392 -24.30529,0 -0.58333,67.27703"
         style="font-size:97.22114562999999521px;font-variant:normal;font-weight:900;font-stretch:normal;text-align:center;text-anchor:middle;font-family:Syntax-UltraBlack;-inkscape-font-specification:Syntax-UltraBlack Heavy;fill:#ffffff"
         id="path3047" />
      <path
         d="m 359.44758,492.52121 56.38827,0 0.19444,-19.83311 -32.27742,0 0.58333,-47.44392 -24.30529,0 -0.58333,67.27703"
         style="font-size:97.22114562999999521px;font-variant:normal;font-weight:900;font-stretch:normal;text-align:center;text-anchor:middle;font-family:Syntax-UltraBlack;-inkscape-font-specification:Syntax-UltraBlack Heavy;fill:#ffffff"
         id="path3049" />
      <path
         d="m 423.90217,492.52121 24.30528,0 0.58333,-67.27703 -24.30529,0 -0.58332,67.27703"
         style="font-size:97.22114562999999521px;font-variant:normal;font-weight:900;font-stretch:normal;text-align:center;text-anchor:middle;font-family:Syntax-UltraBlack;-inkscape-font-specification:Syntax-UltraBlack Heavy;fill:#ffffff"
         id="path3051" />
      <path
         d="m 456.85862,492.52121 21.38866,0 -0.68055,-39.18012 0.19444,0 15.55538,39.18012 30.04134,0 0.58332,-67.27703 -21.58309,0 -0.19444,38.79123 -0.19445,0 -14.48595,-38.79123 -30.13855,0 -0.48611,67.27703"
         style="font-size:97.22114562999999521px;font-variant:normal;font-weight:900;font-stretch:normal;text-align:center;text-anchor:middle;font-family:Syntax-UltraBlack;-inkscape-font-specification:Syntax-UltraBlack Heavy;fill:#ffffff"
         id="path3053" />
      <path
         d="m 595.33495,455.77162 -23.81918,0 -0.19444,18.8609 -3.79162,0 c -4.47221,2e-5 -7.81013,-1.39348 -10.01378,-4.18051 -2.20371,-2.8518 -3.30555,-6.41657 -3.30552,-10.69433 -3e-5,-2.0092 0.25923,-3.95362 0.77777,-5.83327 0.51848,-1.87956 1.49069,-3.62954 2.91663,-5.24994 1.4907,-1.6203 3.59715,-2.94899 6.31938,-3.98606 2.78696,-1.03698 6.28692,-1.55549 10.49988,-1.55554 4.92582,5e-5 10.04613,0.45375 15.36094,1.36109 l 2.91664,-18.76368 c -6.35184,-1.62028 -13.77305,-2.43046 -22.26365,-2.43053 -7.32402,7e-5 -13.61099,0.90747 -18.8609,2.7222 -5.24996,1.75004 -9.49528,4.24538 -12.73597,7.48602 -3.1759,3.17595 -5.5092,6.93516 -6.99992,11.27766 -1.49073,4.27777 -2.23609,8.97679 -2.23609,14.09706 0,4.99072 0.74536,9.62492 2.23609,13.90263 1.49072,4.27774 3.79162,8.06936 6.9027,11.37487 3.17588,3.24071 7.19435,5.76846 12.05542,7.58325 4.86103,1.81479 10.56467,2.72219 17.11092,2.72219 5.18509,0 9.78688,-0.19444 13.80541,-0.58332 4.08323,-0.32408 8.39336,-0.9074 12.93041,-1.74998 l 0.38888,-36.36071"
         style="font-size:97.22114562999999521px;font-variant:normal;font-weight:900;font-stretch:normal;text-align:center;text-anchor:middle;font-family:Syntax-UltraBlack;-inkscape-font-specification:Syntax-UltraBlack Heavy;fill:#ffffff"
         id="path3055" />
      <path
         d="m 630.68851,492.52121 22.16642,0 6.31938,-50.555 0.19444,0 6.4166,50.555 28.09691,0 7.58325,-50.555 0.19444,0 4.18051,50.555 22.45808,0 -10.40266,-67.27703 -29.94411,0 -7.87491,51.13832 -0.19445,0 -5.83327,-51.13832 -30.13855,0 -13.22208,67.27703"
         style="font-size:97.22114562999999521px;font-variant:normal;font-weight:900;font-stretch:normal;text-align:center;text-anchor:middle;font-family:Syntax-UltraBlack;-inkscape-font-specification:Syntax-UltraBlack Heavy;fill:#ffffff"
         id="path3057" />
      <path
         d="m 731.89571,492.52121 24.30529,0 0.58332,-67.27703 -24.30528,0 -0.58333,67.27703"
         style="font-size:97.22114562999999521px;font-variant:normal;font-weight:900;font-stretch:normal;text-align:center;text-anchor:middle;font-family:Syntax-UltraBlack;-inkscape-font-specification:Syntax-UltraBlack Heavy;fill:#ffffff"
         id="path3059" />
      <path
         d="m 764.17161,492.52121 c 3.88883,0.58333 7.97212,1.03702 12.24986,1.3611 4.27771,0.38888 8.58784,0.58332 12.93041,0.58332 19.12011,0 28.68018,-8.13416 28.68024,-24.4025 -6e-5,-5.12029 -1.32875,-9.39802 -3.98607,-12.8332 -2.59261,-3.4351 -6.41664,-5.60637 -11.47209,-6.51381 l -11.18043,-2.04165 c -1.42594,-0.25921 -2.43056,-0.64809 -3.01386,-1.16665 -0.51854,-0.51847 -0.7778,-1.16661 -0.77777,-1.94442 -3e-5,-1.36105 0.64811,-2.43048 1.94442,-3.2083 1.36107,-0.77772 4.01845,-1.1666 7.97214,-1.16666 2.46289,6e-5 5.31471,0.16209 8.55546,0.48611 3.24066,0.32412 6.02766,0.71301 8.36102,1.16665 l 1.8472,-17.59702 c -3.37039,-0.58326 -6.93516,-1.03696 -10.69433,-1.3611 -3.69444,-0.38881 -7.6805,-0.58326 -11.9582,-0.58333 -4.66664,7e-5 -8.84715,0.38896 -12.54153,1.16666 -3.69442,0.71302 -6.93512,1.97689 -9.72211,3.79162 -2.78701,1.75005 -4.95828,4.18057 -6.51382,7.29159 -1.55554,3.11113 -2.33331,6.99997 -2.3333,11.66654 -1e-5,1.94446 0.29166,3.9861 0.87499,6.12493 0.64813,2.07409 1.62034,4.08332 2.91663,6.02771 1.36109,1.87964 3.11107,3.5324 5.24994,4.95828 2.13885,1.36112 4.6666,2.26852 7.58325,2.72219 l 10.111,1.45832 c 1.36107,0.19446 2.30087,0.58335 2.81941,1.16665 0.5833,0.51854 0.87496,1.39353 0.87499,2.62497 -3e-5,1.36112 -0.87502,2.33333 -2.62497,2.91664 -1.68519,0.51853 -4.69904,0.77778 -9.04156,0.77776 -2.2037,2e-5 -4.60182,-0.12961 -7.19437,-0.38888 -2.52776,-0.32405 -5.08791,-0.71294 -7.68047,-1.16665 l -2.23608,18.08313"
         style="font-size:97.22114562999999521px;font-variant:normal;font-weight:900;font-stretch:normal;text-align:center;text-anchor:middle;font-family:Syntax-UltraBlack;-inkscape-font-specification:Syntax-UltraBlack Heavy;fill:#ffffff"
         id="path3061" />
      <path
         d="m 839.84156,492.52121 24.30528,0 0.38889,-47.44392 19.83311,0 0.19444,-19.83311 -63.97151,0 -0.19444,19.83311 19.83311,0 -0.38888,47.44392"
         style="font-size:97.22114562999999521px;font-variant:normal;font-weight:900;font-stretch:normal;text-align:center;text-anchor:middle;font-family:Syntax-UltraBlack;-inkscape-font-specification:Syntax-UltraBlack Heavy;fill:#ffffff"
         id="path3063" />
    </g>
    <g
       id="g3908"
       transform="matrix(0.73267243,0,0,-0.73267243,331.57963,964.64335)">
      <path
         d="M 95.8801,147.475 0,112.05 95.3574,77.4078 c -2.7097,9.4203 -5.2367,23.0762 -5.1512,36.0622 0.0754,12.526 3.0208,24.739 5.6739,34.005"
         id="path60"
         style="fill:#356895;fill-opacity:1;fill-rule:nonzero;stroke:none"
         inkscape:connector-curvature="0" />
      <path
         d="m 122.085,101.015 0,7.63 c 0,2.205 -1.085,3.309 -3.254,3.309 -2.173,0 -3.261,-1.104 -3.261,-3.309 l 0,-7.63 c 0,-2.2041 1.088,-3.3138 3.261,-3.3138 2.169,0 3.254,1.1097 3.254,3.3138 z m 16.083,-13.7509 -19.337,0 c -5.911,0 -10.723,1.1597 -14.456,3.4679 -4.6191,2.8461 -6.9195,7.2508 -6.9195,13.229 l 0,0.58 c 0,5.97 2.3004,10.379 6.9195,13.225 3.733,2.309 8.545,3.471 14.456,3.471 -0.612,0 0.235,-0.1 2.545,-0.289 l 0,7.21 c 0,2.019 -1.021,3.023 -3.056,3.023 -1.837,0 -2.75,-1.004 -2.75,-3.023 l 0,-4.334 -18.1145,-0.115 c 0,5.458 1.5894,9.2 4.7815,11.569 3.185,2.369 8.246,3.552 15.17,3.552 6.917,0 11.974,-1.01 15.161,-3.024 3.731,-2.36 5.6,-6.306 5.6,-11.836 l 0,-36.7059"
         id="path62"
         style="fill:#356895;fill-opacity:1;fill-rule:nonzero;stroke:none"
         inkscape:connector-curvature="0" />
      <path
         d="m 198.478,80.3719 -22.373,0 0,46.5381 c 0,2.967 -1.18,4.458 -3.532,4.458 -2.1,0 -3.155,-1.521 -3.155,-4.554 l 0,-46.4421 -22.372,0 0,63.7271 36.214,0 c 10.151,0 15.218,-5.539 15.218,-16.603 l 0,-47.1241"
         id="path64"
         style="fill:#356895;fill-opacity:1;fill-rule:nonzero;stroke:none"
         inkscape:connector-curvature="0" />
      <path
         d="m 360.731,97.1922 0,31.7308 c 0,2.781 -1.374,4.176 -4.142,4.176 -2.76,0 -4.142,-1.395 -4.142,-4.176 l 0,-31.7308 c 0,-2.7813 1.382,-4.1703 4.142,-4.1703 2.768,0 4.142,1.389 4.142,4.1703 z m 22.817,3.7388 c 0,-7.529 -2.905,-13.081 -8.73,-16.656 -4.704,-2.9211 -10.782,-4.373 -18.229,-4.373 -7.447,0 -13.525,1.4519 -18.225,4.373 -5.828,3.575 -8.737,9.127 -8.737,16.656 l 0,22.946 c 0,7.525 2.909,13.078 8.737,16.656 4.7,2.913 10.778,4.373 18.225,4.373 7.447,0 13.525,-1.46 18.229,-4.373 5.825,-3.578 8.73,-9.131 8.73,-16.656 l 0,-22.946"
         id="path66"
         style="fill:#356895;fill-opacity:1;fill-rule:nonzero;stroke:none"
         inkscape:connector-curvature="0" />
      <path
         d="m 434.057,114.047 -17.76,0 0,10.274 c 0,2.161 -1.071,3.238 -3.193,3.238 -2.129,0 -3.197,-1.085 -3.197,-3.255 l 0,-37.1688 -17.76,0 0,50.5558 20.957,0 c 5.789,0 10.511,-1.132 14.171,-3.392 4.526,-2.777 6.782,-7.088 6.782,-12.929 l 0,-7.323"
         id="path68"
         style="fill:#356895;fill-opacity:1;fill-rule:nonzero;stroke:none"
         inkscape:connector-curvature="0" />
      <path
         d="m 435.639,77.4078 95.571,35.0162 -96.31,34.9 c 2.707,-9.417 5.977,-22.339 5.89,-35.326 -0.08,-12.521 -2.498,-25.3218 -5.151,-34.5902"
         id="path70"
         style="fill:#356895;fill-opacity:1;fill-rule:nonzero;stroke:none"
         inkscape:connector-curvature="0" />
      <path
         d="m 247.529,135.047 c 0,2.903 -2.445,4.36 -5.465,4.36 -3.005,0 -4.507,-1.457 -4.507,-4.36 l 0,-39.4591 c 0,-3.9231 1.647,-5.8867 4.954,-5.8867 3.307,0 4.961,2.0738 4.961,6.2117 l 0,11.1261 25.772,0 0.092,-1.871 c 0,-11.1008 -3.128,-19.016 -9.202,-23.7649 -5.047,-3.9453 -11.724,-5.914 -21.606,-5.914 -8.955,0 -16.257,1.7578 -21.912,5.2531 -6.998,4.3058 -10.502,10.975 -10.502,20.0198 l 0,27.574 c 0,9.044 3.504,15.71 10.502,20.016 5.669,3.508 12.978,5.255 21.94,5.255 9.467,0 16.879,-2.04 22.241,-6.127 5.558,-4.299 8.343,-10.466 8.343,-18.484 l 0,-12.054 -25.668,0 0.057,18.105"
         id="path72"
         style="fill:#356895;fill-opacity:1;fill-rule:nonzero;stroke:none"
         inkscape:connector-curvature="0" />
      <path
         d="m 247.627,70.9898 0,-33.7109 30.272,0 0,55.641 c -0.888,-3.0949 -3.963,-11.0418 -9.472,-15.0949 -7.25,-5.334 -13.416,-6.75 -20.8,-6.8352"
         id="path74"
         style="fill:#356895;fill-opacity:1;fill-rule:nonzero;stroke:none"
         inkscape:connector-curvature="0" />
      <path
         d="m 297.692,156.83 -19.038,0 0,42.029 -30.84,0 0,-40.195 c 5.33,-0.094 15.524,-2.135 21.905,-8.517 2.129,-2.129 4.161,-4.818 5.215,-6.785 1.635,-2.858 2.64,-6.101 3.024,-9.717 0.21,3.75 2.287,5.63 5.013,5.63 3.219,0 5.191,-2.042 5.191,-6.14 l 0,-71.2522 30.484,0 0,72.0682 c 0,15.249 -6.981,22.879 -20.954,22.879"
         id="path76"
         style="fill:#356895;fill-opacity:1;fill-rule:nonzero;stroke:none"
         inkscape:connector-curvature="0" />
    </g>
    <g
       style="font-size:54.01174927px;font-style:normal;font-weight:normal;line-height:125%;letter-spacing:0px;word-spacing:0px;fill:#ffffff;fill-opacity:1;stroke:none;font-family:Sans"
       id="text3778">
      <path
         d="m 239.45341,644.85571 12.31468,0 3.51076,-28.08611 0.10802,0 3.56478,28.08611 15.6094,0 4.21291,-28.08611 0.10803,0 2.3225,28.08611 12.47671,0 -5.77925,-37.37613 -16.63562,0 -4.37495,28.41018 -0.10803,0 -3.2407,-28.41018 -16.74364,0 -7.3456,37.37613"
         style="font-variant:normal;font-weight:900;font-stretch:normal;font-family:Syntax-UltraBlack;-inkscape-font-specification:Syntax-UltraBlack Heavy"
         id="path3095" />
      <path
         d="m 321.7133,635.56569 c -1.90844,0.61214 -3.65482,1.09825 -5.23914,1.45832 -1.54836,0.32408 -2.80863,0.48611 -3.78082,0.4861 -1.65638,10e-6 -3.06068,-0.32406 -4.21292,-0.97221 -1.11625,-0.68414 -1.74639,-1.76437 -1.89041,-3.2407 l 19.44423,0 c -3e-5,-2.41251 -0.3241,-4.645 -0.97221,-6.69746 -0.61216,-2.08843 -1.53036,-3.90683 -2.7546,-5.45519 -1.22429,-1.54831 -2.73662,-2.75457 -4.53699,-3.61878 -1.80041,-0.86416 -3.83485,-1.29626 -6.10332,-1.29628 -3.06068,2e-5 -5.70726,0.45012 -7.93973,1.35029 -2.19649,0.90022 -3.96087,2.08848 -5.29315,3.56477 -1.29629,1.47635 -2.25049,3.0787 -2.86262,4.80705 -0.57613,1.69239 -0.86419,3.38475 -0.86419,5.07711 0,1.69238 0.28806,3.40275 0.86419,5.13111 0.61213,1.69238 1.56633,3.27672 2.86262,4.75304 1.33228,1.47632 3.09666,2.66458 5.29315,3.56477 2.23247,0.9002 4.87905,1.35029 7.93973,1.35029 1.18824,0 2.93461,-0.23405 5.23914,-0.70215 2.30447,-0.43209 4.735,-1.09824 7.29158,-1.99843 l -2.48454,-7.56165 M 306.59001,627.788 c 0.14402,-1.44029 0.63013,-2.64656 1.45832,-3.61879 0.86417,-0.97219 1.99842,-1.45829 3.40274,-1.45831 1.40429,2e-5 2.53853,0.48612 3.40274,1.45831 0.90017,0.97223 1.42229,2.1785 1.56634,3.61879 l -9.83014,0"
         style="font-variant:normal;font-weight:900;font-stretch:normal;font-family:Syntax-UltraBlack;-inkscape-font-specification:Syntax-UltraBlack Heavy"
         id="path3097" />
      <path
         d="m 326.59209,626.81579 3.88884,0 0,0.32407 -0.054,3.61879 c 0,0.32408 0,1.3143 0,2.97064 -0.036,1.15226 -0.054,2.19649 -0.054,3.13268 0,3.13269 0.79217,5.41919 2.37652,6.8595 1.58433,1.4043 3.88883,2.10645 6.9135,2.10645 1.58433,0 3.36672,-0.14403 5.34716,-0.43209 1.98041,-0.25205 3.56476,-0.55812 4.75304,-0.9182 l -0.97221,-9.23601 c -0.3601,10e-6 -0.88222,0.036 -1.56634,0.10803 -0.72018,0.072 -1.22429,0.10803 -1.51233,0.10802 -0.8282,10e-6 -1.49435,-0.21604 -1.99844,-0.64814 -0.50412,-0.43209 -0.75618,-1.18825 -0.75616,-2.2685 -2e-5,-0.82816 0.018,-1.74636 0.054,-2.7546 -2e-5,-1.4763 -2e-5,-2.35849 0,-2.64657 l 0,-0.32407 7.12955,0 0,-9.61409 -7.02153,0 0.10803,-9.72212 -12.53073,0 -0.10802,9.72212 -3.99687,0 0,9.61409"
         style="font-variant:normal;font-weight:900;font-stretch:normal;font-family:Syntax-UltraBlack;-inkscape-font-specification:Syntax-UltraBlack Heavy"
         id="path3099" />
      <path
         d="m 378.67882,635.56569 c -1.90844,0.61214 -3.65482,1.09825 -5.23914,1.45832 -1.54836,0.32408 -2.80863,0.48611 -3.78082,0.4861 -1.65638,10e-6 -3.06069,-0.32406 -4.21292,-0.97221 -1.11626,-0.68414 -1.74639,-1.76437 -1.89041,-3.2407 l 19.44423,0 c -3e-5,-2.41251 -0.32411,-4.645 -0.97221,-6.69746 -0.61217,-2.08843 -1.53037,-3.90683 -2.7546,-5.45519 -1.2243,-1.54831 -2.73662,-2.75457 -4.53699,-3.61878 -1.80041,-0.86416 -3.83485,-1.29626 -6.10333,-1.29628 -3.06068,2e-5 -5.70725,0.45012 -7.93972,1.35029 -2.19649,0.90022 -3.96087,2.08848 -5.29316,3.56477 -1.29628,1.47635 -2.25049,3.0787 -2.86262,4.80705 -0.57613,1.69239 -0.86419,3.38475 -0.86419,5.07711 0,1.69238 0.28806,3.40275 0.86419,5.13111 0.61213,1.69238 1.56634,3.27672 2.86262,4.75304 1.33229,1.47632 3.09667,2.66458 5.29316,3.56477 2.23247,0.9002 4.87904,1.35029 7.93972,1.35029 1.18824,0 2.93462,-0.23405 5.23914,-0.70215 2.30448,-0.43209 4.735,-1.09824 7.29159,-1.99843 l -2.48454,-7.56165 M 363.55553,627.788 c 0.14402,-1.44029 0.63012,-2.64656 1.45832,-3.61879 0.86417,-0.97219 1.99841,-1.45829 3.40274,-1.45831 1.40428,2e-5 2.53853,0.48612 3.40274,1.45831 0.90017,0.97223 1.42228,2.1785 1.56634,3.61879 l -9.83014,0"
         style="font-variant:normal;font-weight:900;font-stretch:normal;font-family:Syntax-UltraBlack;-inkscape-font-specification:Syntax-UltraBlack Heavy"
         id="path3101" />
      <path
         d="m 386.15017,644.85571 12.58473,0 0.10803,-13.50293 c 1.0082,-1.54833 2.12444,-2.61056 3.34873,-3.1867 1.22424,-0.61211 2.95262,-0.91818 5.18512,-0.9182 l 0.10803,-11.01839 c -2.52057,0.072 -4.483,0.55815 -5.88728,1.45831 -1.36832,0.86422 -2.50256,2.35854 -3.40274,4.48298 l -0.10803,-0.10803 0.054,-4.86105 -11.77456,0 -0.21604,27.65401"
         style="font-variant:normal;font-weight:900;font-stretch:normal;font-family:Syntax-UltraBlack;-inkscape-font-specification:Syntax-UltraBlack Heavy"
         id="path3103" />
      <path
         d="m 410.09678,644.85571 12.53072,0 0.21605,-27.65401 -12.53073,0 -0.21604,27.65401 m 0.27005,-31.59687 12.53073,0 0,-7.99374 -12.53073,0 0,7.99374"
         style="font-variant:normal;font-weight:900;font-stretch:normal;font-family:Syntax-UltraBlack;-inkscape-font-specification:Syntax-UltraBlack Heavy"
         id="path3105" />
      <path
         d="m 428.13585,644.85571 12.53073,0 0.16203,-17.44579 c 1.11623,-0.82816 2.19646,-1.24225 3.24071,-1.24227 0.82816,2e-5 1.42229,0.18006 1.78239,0.54012 0.39606,0.36009 0.59411,1.00823 0.59413,1.94442 l -0.054,16.20352 12.42271,0 0.054,-9.18199 c 0.036,-2.8086 0.054,-5.04109 0.054,-6.69746 0.036,-1.65634 0.054,-3.20468 0.054,-4.64501 -3e-5,-1.58432 -0.27009,-2.91661 -0.81017,-3.99687 -0.50415,-1.08021 -1.18829,-1.90839 -2.05245,-2.48454 -0.86422,-0.61211 -1.80042,-1.0262 -2.80861,-1.24227 -0.97224,-0.25203 -1.99846,-0.37806 -3.07867,-0.37808 -1.51235,2e-5 -2.95267,0.28809 -4.32094,0.86418 -1.36832,0.54015 -3.02468,1.36833 -4.96908,2.48454 l -0.054,-2.37651 -12.47672,0 -0.27006,27.65401"
         style="font-variant:normal;font-weight:900;font-stretch:normal;font-family:Syntax-UltraBlack;-inkscape-font-specification:Syntax-UltraBlack Heavy"
         id="path3107" />
      <path
         d="m 463.72792,625.9516 c 0,1.65638 0.59412,3.1507 1.78239,4.48298 1.18825,1.29629 2.59255,2.14247 4.21291,2.53855 l 0,0.10802 c -2.62857,1.11626 -4.62701,2.21449 -5.9953,3.29472 -1.33229,1.04423 -1.99844,2.21449 -1.99844,3.51076 0,1.26028 0.48611,2.2865 1.45832,3.07867 0.97221,0.79218 2.7726,1.42231 5.40118,1.89041 l 0,0.10803 c -1.87242,0.57612 -3.42075,1.54833 -4.64501,2.91663 -1.18826,1.36829 -1.78239,2.80861 -1.78239,4.32094 0,2.12445 1.06223,3.76281 3.18669,4.91507 2.12446,1.18825 5.29314,1.78237 9.50607,1.78239 3.85282,-2e-5 7.07552,-0.3961 9.6681,-1.18826 2.59254,-0.79219 4.59097,-1.8004 5.99531,-3.02466 1.40427,-1.18827 2.37648,-2.44854 2.91663,-3.78082 0.54009,-1.3323 0.81014,-2.61057 0.81018,-3.83484 -4e-5,-2.7726 -1.02626,-4.96907 -3.07867,-6.58943 -2.01647,-1.65635 -5.14915,-2.68258 -9.39805,-3.07867 l -6.21135,-0.59413 c -0.72017,-0.072 -1.20627,-0.19803 -1.45832,-0.37808 -0.21606,-0.21604 -0.32408,-0.5041 -0.32407,-0.86419 -10e-6,-0.25204 0.12602,-0.5041 0.37809,-0.75616 0.25204,-0.25205 0.59411,-0.37807 1.02622,-0.37808 0.25204,10e-6 0.68413,0.036 1.29628,0.10802 0.90018,0.072 1.65634,0.10803 2.26849,0.10802 3.96085,1e-5 7.02151,-0.73815 9.182,-2.21448 2.19645,-1.51231 3.29469,-3.25869 3.29472,-5.23914 -3e-5,-1.11622 -0.23408,-2.08843 -0.70215,-2.91663 l 3.99687,0.16203 0,-6.96751 -8.85793,0.16203 c -0.90022,-0.36005 -2.03447,-0.68412 -3.40274,-0.97221 -1.33231,-0.28803 -2.73662,-0.43207 -4.21292,-0.43209 -4.573,2e-5 -8.10177,0.93623 -10.5863,2.80861 -2.48454,1.87243 -3.72681,4.17693 -3.72681,6.9135 m 8.69589,23.17104 c -10e-6,-1.08024 0.36007,-1.90842 1.08023,-2.48454 0.72015,-0.54012 1.62034,-0.9002 2.70059,-1.08023 1.9084,0.18003 3.34871,0.45009 4.32094,0.81017 1.0082,0.39609 1.51231,1.11624 1.51233,2.16047 -2e-5,1.04422 -0.41411,1.89041 -1.24227,2.53855 -0.8282,0.68415 -2.10647,1.02622 -3.83483,1.02623 -1.47634,-10e-6 -2.61058,-0.28807 -3.40274,-0.86419 -0.75618,-0.57613 -1.13426,-1.27828 -1.13425,-2.10646 m 2.26849,-23.60313 c -10e-6,-0.93619 0.34206,-1.74636 1.02623,-2.43053 0.72014,-0.68413 1.49431,-1.0262 2.3225,-1.02623 1.08022,3e-5 1.94441,0.3241 2.59257,0.97222 0.68412,0.61215 1.0262,1.45833 1.02622,2.53855 -2e-5,1.04424 -0.3421,1.90843 -1.02622,2.59256 -0.64816,0.64816 -1.45834,0.97223 -2.43053,0.97221 -1.00824,2e-5 -1.85442,-0.30605 -2.53856,-0.9182 -0.64815,-0.64812 -0.97222,-1.54831 -0.97221,-2.70058"
         style="font-variant:normal;font-weight:900;font-stretch:normal;font-family:Syntax-UltraBlack;-inkscape-font-specification:Syntax-UltraBlack Heavy"
         id="path3109" />
      <path
         d="m 513.65165,626.16765 c 0,2.73661 0.4321,5.31117 1.29629,7.72368 0.86418,2.37652 2.14246,4.46498 3.83483,6.26536 1.72837,1.8004 3.85283,3.2227 6.37339,4.26693 2.52053,1.00822 5.36515,1.51233 8.53385,1.51233 3.16867,0 6.01328,-0.50411 8.53386,-1.51233 2.52052,-1.04423 4.62697,-2.46653 6.31937,-4.26693 1.72834,-1.80038 3.02462,-3.88884 3.88885,-6.26536 0.86415,-2.41251 1.29624,-4.98707 1.29628,-7.72368 -4e-5,-2.73658 -0.43213,-5.29313 -1.29628,-7.66967 -0.86423,-2.4125 -2.16051,-4.51895 -3.88885,-6.31938 -1.6924,-1.80035 -3.79885,-3.20466 -6.31937,-4.21291 -2.52058,-1.04419 -5.36519,-1.5663 -8.53386,-1.56634 -3.1687,4e-5 -6.01332,0.52215 -8.53385,1.56634 -2.52056,1.00825 -4.64502,2.41256 -6.37339,4.21291 -1.69237,1.80043 -2.97065,3.90688 -3.83483,6.31938 -0.86419,2.37654 -1.29629,4.93309 -1.29629,7.66967 m 26.14169,0 c -3e-5,2.66459 -0.46813,4.78905 -1.4043,6.37338 -0.93623,1.58436 -2.50257,2.37653 -4.69903,2.37652 -2.19649,10e-6 -3.76283,-0.79216 -4.69902,-2.37652 -0.93622,-1.58433 -1.40432,-3.70879 -1.4043,-6.37338 -2e-5,-2.66456 0.46808,-4.78902 1.4043,-6.37339 0.93619,-1.58432 2.50253,-2.37649 4.69902,-2.37652 2.19646,3e-5 3.7628,0.7922 4.69903,2.37652 0.93617,1.58437 1.40427,3.70883 1.4043,6.37339"
         style="font-variant:normal;font-weight:900;font-stretch:normal;font-family:Syntax-UltraBlack;-inkscape-font-specification:Syntax-UltraBlack Heavy"
         id="path3111" />
      <path
         d="m 569.46435,626.76178 c 0.93619,-0.82816 2.12445,-1.24225 3.56478,-1.24227 1.18823,2e-5 2.14244,0.41411 2.86262,1.24227 0.75614,0.79219 1.13422,2.10647 1.13424,3.94285 -2e-5,1.11626 -0.14405,2.07047 -0.43209,2.86263 -0.28808,0.75617 -0.68417,1.3503 -1.18826,1.78239 -0.46812,0.4321 -0.99023,0.73816 -1.56634,0.91819 -0.57614,0.18005 -1.17027,0.27007 -1.78239,0.27006 -0.64815,10e-6 -1.26029,-0.054 -1.8364,-0.16203 -0.57614,-0.10802 -0.8642,-0.27005 -0.86418,-0.48611 -2e-5,-0.28805 0.018,-1.15224 0.054,-2.59256 -2e-5,-0.9722 -2e-5,-1.85439 0,-2.64658 l 0.054,-3.88884 m 0.054,-9.56008 -12.36869,0 -0.37808,41.69707 12.36869,0 0.054,-15.12329 c 0.9722,0.79217 1.96241,1.33229 2.97065,1.62035 1.04421,0.28806 2.25047,0.43209 3.61878,0.43209 1.83638,0 3.58276,-0.34207 5.23914,-1.02622 1.65634,-0.68415 3.11465,-1.69237 4.37496,-3.02466 1.29625,-1.33228 2.30446,-2.97064 3.02465,-4.91507 0.75613,-1.98042 1.13422,-4.1949 1.13425,-6.64344 -3e-5,-1.76437 -0.27009,-3.47474 -0.81018,-5.13112 -0.50414,-1.65634 -1.27831,-3.15066 -2.3225,-4.48297 -1.04426,-1.33227 -2.32254,-2.3945 -3.83484,-3.1867 -1.47634,-0.79214 -3.16871,-1.18823 -5.0771,-1.18825 -1.47634,2e-5 -2.98867,0.30609 -4.53699,0.9182 -1.54835,0.57615 -2.64659,1.38632 -3.29471,2.43052 l -0.16204,0 0,-2.37651"
         style="font-variant:normal;font-weight:900;font-stretch:normal;font-family:Syntax-UltraBlack;-inkscape-font-specification:Syntax-UltraBlack Heavy"
         id="path3113" />
      <path
         d="m 618.88341,635.56569 c -1.90844,0.61214 -3.65482,1.09825 -5.23914,1.45832 -1.54836,0.32408 -2.80863,0.48611 -3.78082,0.4861 -1.65638,10e-6 -3.06069,-0.32406 -4.21292,-0.97221 -1.11626,-0.68414 -1.74639,-1.76437 -1.89041,-3.2407 l 19.44423,0 c -4e-5,-2.41251 -0.32411,-4.645 -0.97221,-6.69746 -0.61217,-2.08843 -1.53037,-3.90683 -2.7546,-5.45519 -1.2243,-1.54831 -2.73662,-2.75457 -4.53699,-3.61878 -1.80041,-0.86416 -3.83485,-1.29626 -6.10333,-1.29628 -3.06068,2e-5 -5.70725,0.45012 -7.93973,1.35029 -2.19648,0.90022 -3.96086,2.08848 -5.29315,3.56477 -1.29628,1.47635 -2.25049,3.0787 -2.86262,4.80705 -0.57613,1.69239 -0.86419,3.38475 -0.86419,5.07711 0,1.69238 0.28806,3.40275 0.86419,5.13111 0.61213,1.69238 1.56634,3.27672 2.86262,4.75304 1.33229,1.47632 3.09667,2.66458 5.29315,3.56477 2.23248,0.9002 4.87905,1.35029 7.93973,1.35029 1.18824,0 2.93462,-0.23405 5.23914,-0.70215 2.30448,-0.43209 4.735,-1.09824 7.29159,-1.99843 l -2.48454,-7.56165 M 603.76012,627.788 c 0.14402,-1.44029 0.63012,-2.64656 1.45831,-3.61879 0.86418,-0.97219 1.99842,-1.45829 3.40275,-1.45831 1.40428,2e-5 2.53853,0.48612 3.40274,1.45831 0.90017,0.97223 1.42228,2.1785 1.56634,3.61879 l -9.83014,0"
         style="font-variant:normal;font-weight:900;font-stretch:normal;font-family:Syntax-UltraBlack;-inkscape-font-specification:Syntax-UltraBlack Heavy"
         id="path3115" />
      <path
         d="m 626.35474,644.85571 12.53073,0 0.16203,-17.44579 c 1.11623,-0.82816 2.19646,-1.24225 3.24071,-1.24227 0.82816,2e-5 1.42229,0.18006 1.78238,0.54012 0.39607,0.36009 0.59411,1.00823 0.59413,1.94442 l -0.054,16.20352 12.4227,0 0.054,-9.18199 c 0.036,-2.8086 0.054,-5.04109 0.054,-6.69746 0.036,-1.65634 0.054,-3.20468 0.054,-4.64501 -3e-5,-1.58432 -0.27009,-2.91661 -0.81018,-3.99687 -0.50414,-1.08021 -1.18829,-1.90839 -2.05244,-2.48454 -0.86422,-0.61211 -1.80042,-1.0262 -2.80861,-1.24227 -0.97224,-0.25203 -1.99846,-0.37806 -3.07867,-0.37808 -1.51236,2e-5 -2.95267,0.28809 -4.32094,0.86418 -1.36832,0.54015 -3.02468,1.36833 -4.96908,2.48454 l -0.054,-2.37651 -12.47671,0 -0.27006,27.65401"
         style="font-variant:normal;font-weight:900;font-stretch:normal;font-family:Syntax-UltraBlack;-inkscape-font-specification:Syntax-UltraBlack Heavy"
         id="path3117" />
      <path
         d="m 661.8388,644.85571 c 2.16046,0.32407 4.42895,0.57613 6.80548,0.75617 2.3765,0.21604 4.77102,0.32407 7.18356,0.32407 10.62228,0 15.93343,-4.51898 15.93347,-13.55695 -4e-5,-2.8446 -0.7382,-5.22112 -2.21449,-7.12955 -1.44034,-1.9084 -3.5648,-3.11466 -6.37338,-3.61879 l -6.21135,-1.13425 c -0.79219,-0.144 -1.35031,-0.36005 -1.67437,-0.64814 -0.28807,-0.28803 -0.43211,-0.64811 -0.43209,-1.08023 -2e-5,-0.75614 0.36006,-1.35027 1.08023,-1.78239 0.75615,-0.43207 2.23247,-0.64811 4.42897,-0.64814 1.36827,3e-5 2.95262,0.0901 4.75303,0.27006 1.80037,0.18007 3.3487,0.39611 4.64501,0.64814 l 1.02622,-9.77613 c -1.87243,-0.32403 -3.85286,-0.57608 -5.94129,-0.75616 -2.05247,-0.21601 -4.26695,-0.32403 -6.64344,-0.32407 -2.59258,4e-5 -4.91509,0.21608 -6.96752,0.64814 -2.05245,0.39612 -3.85284,1.09827 -5.40117,2.10646 -1.54834,0.97224 -2.75461,2.32254 -3.61879,4.05088 -0.86419,1.7284 -1.29628,3.88887 -1.29628,6.48141 0,1.08026 0.16203,2.2145 0.4861,3.40274 0.36008,1.15227 0.9002,2.26851 1.62036,3.34873 0.75616,1.04424 1.72837,1.96244 2.91663,2.7546 1.18825,0.75618 2.59256,1.26028 4.21292,1.51232 l 5.61722,0.81018 c 0.75615,0.10804 1.27826,0.32408 1.56634,0.64814 0.32405,0.28808 0.48609,0.77418 0.48611,1.45832 -2e-5,0.75617 -0.48613,1.29629 -1.45832,1.62035 -0.93622,0.28807 -2.61058,0.4321 -5.02309,0.4321 -1.22428,0 -2.55657,-0.072 -3.99687,-0.21605 -1.40432,-0.18003 -2.82662,-0.39608 -4.26693,-0.64814 l -1.24227,10.04618"
         style="font-variant:normal;font-weight:900;font-stretch:normal;font-family:Syntax-UltraBlack;-inkscape-font-specification:Syntax-UltraBlack Heavy"
         id="path3119" />
      <path
         d="m 692.85925,626.81579 3.88885,0 0,0.32407 -0.054,3.61879 c -10e-6,0.32408 -10e-6,1.3143 0,2.97064 -0.036,1.15226 -0.054,2.19649 -0.054,3.13268 -10e-6,3.13269 0.79216,5.41919 2.37651,6.8595 1.58434,1.4043 3.88884,2.10645 6.91351,2.10645 1.58433,0 3.36671,-0.14403 5.34716,-0.43209 1.98041,-0.25205 3.56475,-0.55812 4.75303,-0.9182 l -0.97221,-9.23601 c -0.3601,10e-6 -0.88221,0.036 -1.56634,0.10803 -0.72018,0.072 -1.22428,0.10803 -1.51233,0.10802 -0.8282,10e-6 -1.49434,-0.21604 -1.99843,-0.64814 -0.50413,-0.43209 -0.75618,-1.18825 -0.75617,-2.2685 -1e-5,-0.82816 0.018,-1.74636 0.054,-2.7546 -10e-6,-1.4763 -10e-6,-2.35849 0,-2.64657 l 0,-0.32407 7.12956,0 0,-9.61409 -7.02153,0 0.10802,-9.72212 -12.53072,0 -0.10803,9.72212 -3.99687,0 0,9.61409"
         style="font-variant:normal;font-weight:900;font-stretch:normal;font-family:Syntax-UltraBlack;-inkscape-font-specification:Syntax-UltraBlack Heavy"
         id="path3121" />
      <path
         d="m 746.02623,624.70933 c -3e-5,-2.70056 -0.93623,-4.78902 -2.80861,-6.26536 -1.83642,-1.4763 -4.57301,-2.21446 -8.20978,-2.21448 -2.01646,2e-5 -4.23094,0.28809 -6.64345,0.86418 -2.41253,0.57616 -5.23914,1.54837 -8.47984,2.91664 l 3.02466,6.75147 c 1.51232,-0.72014 2.98864,-1.26026 4.42896,-1.62036 1.47631,-0.39606 2.8086,-0.5941 3.99687,-0.59412 1.0082,2e-5 1.72836,0.23407 2.16047,0.70215 0.43208,0.43211 0.64812,1.00824 0.64814,1.72837 l 0,0.81018 c -3.45677,2e-5 -6.33739,0.21606 -8.64188,0.64814 -2.2685,0.43211 -4.05089,1.08025 -5.34716,1.94442 -1.29629,0.86421 -2.21449,1.90843 -2.7546,3.13269 -0.54012,1.22427 -0.81018,2.68259 -0.81018,4.37495 0,2.44853 0.84618,4.39296 2.53855,5.83327 1.69237,1.4043 3.74481,2.10645 6.15734,2.10645 1.58434,0 3.2587,-0.32407 5.0231,-0.97221 1.76436,-0.61213 3.27669,-1.44031 4.53698,-2.48454 0.21603,1.08024 0.81016,1.92642 1.78239,2.53855 0.97219,0.61214 2.12444,0.9182 3.45675,0.9182 1.44029,0 3.04264,-0.14403 4.80705,-0.43209 1.80036,-0.28806 3.51073,-0.66614 5.13111,-1.13425 l -0.75616,-7.18356 c -0.57616,0.28807 -1.13428,0.4321 -1.67437,0.43209 -0.43212,10e-6 -0.82821,-0.16202 -1.18825,-0.4861 -0.3241,-0.32406 -0.48614,-0.79216 -0.48611,-1.40431 -3e-5,-1.11623 0.018,-2.86261 0.054,-5.23914 0.036,-2.44851 0.054,-4.33892 0.054,-5.67123 m -11.55851,12.8548 c -0.50413,0.46811 -1.08025,0.82818 -1.72838,1.08023 -0.64815,0.25206 -1.27829,0.37809 -1.89041,0.37808 -0.82819,1e-5 -1.53034,-0.28805 -2.10646,-0.86418 -0.57613,-0.57612 -0.86419,-1.33229 -0.86418,-2.2685 -10e-6,-1.15224 0.46809,-2.03443 1.4043,-2.64657 0.93619,-0.61212 2.66457,-0.91819 5.18513,-0.9182 l 0,5.23914"
         style="font-variant:normal;font-weight:900;font-stretch:normal;font-family:Syntax-UltraBlack;-inkscape-font-specification:Syntax-UltraBlack Heavy"
         id="path3123" />
      <path
         d="m 776.39855,617.2017 c -1.2603,-0.28804 -2.75462,-0.52209 -4.48298,-0.70216 -1.69239,-0.18001 -3.02467,-0.27003 -3.99687,-0.27005 -3.06068,2e-5 -5.70725,0.45012 -7.93972,1.35029 -2.19649,0.90022 -3.96087,2.08848 -5.29315,3.56477 -1.29629,1.47635 -2.2505,3.0787 -2.86263,4.80705 -0.57612,1.69239 -0.86419,3.38475 -0.86419,5.07711 0,1.98044 0.30607,3.87085 0.9182,5.67123 0.61214,1.76439 1.53033,3.33073 2.7546,4.69902 1.22426,1.3683 2.7726,2.44853 4.64501,3.24071 1.90841,0.79217 4.08688,1.18825 6.53543,1.18825 1.62033,0 3.38471,-0.14403 5.29315,-0.43209 1.90839,-0.25205 3.70878,-0.64814 5.40117,-1.18826 l -2.21448,-8.69589 c -0.8282,0.21606 -1.7284,0.3961 -2.70059,0.54012 -0.93622,0.10803 -1.72839,0.16204 -2.37651,0.16203 -1.65638,10e-6 -2.97067,-0.45009 -3.94286,-1.35029 -0.97223,-0.93619 -1.45833,-2.23247 -1.45832,-3.88885 -10e-6,-1.76436 0.59412,-3.11466 1.78239,-4.05088 1.22425,-0.93618 2.91661,-1.40428 5.0771,-1.4043 1.44029,2e-5 2.68256,0.12604 3.72681,0.37808 l 1.99844,-8.69589"
         style="font-variant:normal;font-weight:900;font-stretch:normal;font-family:Syntax-UltraBlack;-inkscape-font-specification:Syntax-UltraBlack Heavy"
         id="path3125" />
      <path
         d="m 779.42322,644.85571 12.53073,0 0.10802,-12.47671 0.10802,0 5.67124,12.47671 14.69119,0 -8.85792,-14.20509 8.58787,-13.44892 -13.773,0 -6.31938,11.66654 -0.10802,-0.10803 0.21605,-25.06145 -12.53073,0 -0.32407,41.15695"
         style="font-variant:normal;font-weight:900;font-stretch:normal;font-family:Syntax-UltraBlack;-inkscape-font-specification:Syntax-UltraBlack Heavy"
         id="path3127" />
    </g>
    <g
       style="font-size:56px;font-style:normal;font-weight:normal;line-height:125%;letter-spacing:0px;word-spacing:0px;fill:#ffffff;fill-opacity:1;stroke:none;font-family:Sans"
       id="text3790">
      <path
         d="m 344.82773,676.7976 -12.376,0 -3.864,18.368 -0.112,0 -3.584,-18.368 -15.008,0 -3.976,18.368 -0.112,0 -3.528,-18.368 -12.32,0 8.232,28.672 15.12,0 3.696,-18.032 0.112,0 4.032,18.032 15.008,0 8.68,-28.672"
         style="font-variant:normal;font-weight:900;font-stretch:normal;font-family:Syntax-UltraBlack;-inkscape-font-specification:Syntax-UltraBlack Heavy"
         id="path3066" />
      <path
         d="m 348.07573,705.4696 12.992,0 0.224,-28.672 -12.992,0 -0.224,28.672 m 0.28,-32.76 12.992,0 0,-8.288 -12.992,0 0,8.288"
         style="font-variant:normal;font-weight:900;font-stretch:normal;font-family:Syntax-UltraBlack;-inkscape-font-specification:Syntax-UltraBlack Heavy"
         id="path3068" />
      <path
         d="m 364.09085,686.7656 4.032,0 0,0.336 -0.056,3.752 c 0,0.33602 0,1.36268 0,3.08 -0.0373,1.19468 -0.056,2.27735 -0.056,3.248 0,3.24801 0.82133,5.61867 2.464,7.112 1.64266,1.456 4.03199,2.184 7.168,2.184 1.64265,0 3.49065,-0.14933 5.544,-0.448 2.05331,-0.26133 3.69598,-0.57866 4.928,-0.952 l -1.008,-9.576 c -0.37336,10e-6 -0.91469,0.0373 -1.624,0.112 -0.74669,0.0747 -1.26935,0.11201 -1.568,0.112 -0.85868,10e-6 -1.54935,-0.22399 -2.072,-0.672 -0.52268,-0.44798 -0.78402,-1.23198 -0.784,-2.352 -2e-5,-0.85865 0.0186,-1.81065 0.056,-2.856 -2e-5,-1.53065 -2e-5,-2.44531 0,-2.744 l 0,-0.336 7.392,0 0,-9.968 -7.28,0 0.112,-10.08 -12.992,0 -0.112,10.08 -4.144,0 0,9.968"
         style="font-variant:normal;font-weight:900;font-stretch:normal;font-family:Syntax-UltraBlack;-inkscape-font-specification:Syntax-UltraBlack Heavy"
         id="path3070" />
      <path
         d="m 391.60698,705.4696 12.992,0 0.168,-18.088 c 1.15731,-0.85864 2.27731,-1.28798 3.36,-1.288 0.85864,2e-5 1.47464,0.18669 1.848,0.56 0.41064,0.37336 0.61597,1.04536 0.616,2.016 l -0.056,16.8 12.88,0 0.056,-9.52 c 0.0373,-2.91198 0.056,-5.22665 0.056,-6.944 0.0373,-1.71731 0.056,-3.32264 0.056,-4.816 -4e-5,-1.64264 -0.28004,-3.02397 -0.84,-4.144 -0.5227,-1.11997 -1.23204,-1.97863 -2.128,-2.576 -0.89603,-0.63463 -1.8667,-1.06397 -2.912,-1.288 -1.00803,-0.2613 -2.07203,-0.39197 -3.192,-0.392 -1.56803,3e-5 -3.06136,0.2987 -4.48,0.896 -1.41869,0.56003 -3.13602,1.4187 -5.152,2.576 l 0.112,-16.464 -13.048,0 -0.336,42.672"
         style="font-variant:normal;font-weight:900;font-stretch:normal;font-family:Syntax-UltraBlack;-inkscape-font-specification:Syntax-UltraBlack Heavy"
         id="path3072" />
      <path
         d="m 476.05235,694.1016 c -2.01603,0.33602 -4.06936,0.50402 -6.16,0.504 -1.94136,2e-5 -3.56535,-0.24265 -4.872,-0.728 -1.30668,-0.48532 -2.33335,-1.13865 -3.08,-1.96 -0.74668,-0.82131 -1.26935,-1.71731 -1.568,-2.688 -0.29868,-1.00798 -0.44801,-2.07198 -0.448,-3.192 -1e-5,-0.93331 0.14932,-1.86664 0.448,-2.8 0.29865,-0.97064 0.82132,-1.8853 1.568,-2.744 0.78398,-0.85864 1.88532,-1.5493 3.304,-2.072 1.45598,-0.55997 3.22931,-0.83997 5.32,-0.84 0.70931,3e-5 1.60531,0.056 2.688,0.168 1.11997,0.11203 2.12797,0.26137 3.024,0.448 l 1.848,-11.592 c -1.79203,-0.37329 -3.45336,-0.63462 -4.984,-0.784 -1.49336,-0.14929 -3.24802,-0.22396 -5.264,-0.224 -7.39201,4e-5 -12.97334,1.82938 -16.744,5.488 -3.77067,3.62137 -5.656,8.62403 -5.656,15.008 0,2.83735 0.448,5.50669 1.344,8.008 0.896,2.46401 2.22133,4.62934 3.976,6.496 1.79199,1.86667 3.99466,3.34134 6.608,4.424 2.61332,1.04534 5.56265,1.568 8.848,1.568 2.09064,0 4.16264,-0.0933 6.216,-0.28 1.9413,-0.224 3.71464,-0.504 5.32,-0.84 l -1.736,-11.368"
         style="font-variant:normal;font-weight:900;font-stretch:normal;font-family:Syntax-UltraBlack;-inkscape-font-specification:Syntax-UltraBlack Heavy"
         id="path3074" />
      <path
         d="m 508.43873,695.8376 c -1.9787,0.63468 -3.78936,1.13868 -5.432,1.512 -1.60536,0.33601 -2.91203,0.50401 -3.92,0.504 -1.71736,10e-6 -3.17335,-0.33599 -4.368,-1.008 -1.15735,-0.70932 -1.81068,-1.82932 -1.96,-3.36 l 20.16,0 c -4e-5,-2.50131 -0.33604,-4.81598 -1.008,-6.944 -0.6347,-2.16531 -1.5867,-4.05064 -2.856,-5.656 -1.26937,-1.6053 -2.83736,-2.85597 -4.704,-3.752 -1.86669,-0.89597 -3.97603,-1.34397 -6.328,-1.344 -3.17335,3e-5 -5.91735,0.4667 -8.232,1.4 -2.27735,0.93337 -4.10668,2.16536 -5.488,3.696 -1.34401,1.53069 -2.33334,3.19203 -2.968,4.984 -0.59734,1.75469 -0.89601,3.50935 -0.896,5.264 -1e-5,1.75468 0.29866,3.52802 0.896,5.32 0.63466,1.75468 1.62399,3.39734 2.968,4.928 1.38132,1.53067 3.21065,2.76267 5.488,3.696 2.31465,0.93334 5.05865,1.4 8.232,1.4 1.23198,0 3.04264,-0.24266 5.432,-0.728 2.3893,-0.448 4.9093,-1.13866 7.56,-2.072 l -2.576,-7.84 m -15.68,-8.064 c 0.14932,-1.49331 0.65332,-2.74398 1.512,-3.752 0.89598,-1.00797 2.07198,-1.51197 3.528,-1.512 1.45598,3e-5 2.63197,0.50403 3.528,1.512 0.93331,1.00802 1.47464,2.25869 1.624,3.752 l -10.192,0"
         style="font-variant:normal;font-weight:900;font-stretch:normal;font-family:Syntax-UltraBlack;-inkscape-font-specification:Syntax-UltraBlack Heavy"
         id="path3076" />
      <path
         d="m 516.1851,705.4696 12.992,0 0.224,-28.672 -12.992,0 -0.224,28.672 m 0.28,-32.76 12.992,0 0,-8.288 -12.992,0 0,8.288"
         style="font-variant:normal;font-weight:900;font-stretch:normal;font-family:Syntax-UltraBlack;-inkscape-font-specification:Syntax-UltraBlack Heavy"
         id="path3078" />
      <path
         d="m 534.88823,705.4696 12.992,0 0.336,-42.672 -12.992,0 -0.336,42.672"
         style="font-variant:normal;font-weight:900;font-stretch:normal;font-family:Syntax-UltraBlack;-inkscape-font-specification:Syntax-UltraBlack Heavy"
         id="path3080" />
      <path
         d="m 565.40735,691.1336 c -10e-6,-2.31465 0.31732,-4.01331 0.952,-5.096 0.67198,-1.08264 1.75465,-1.62397 3.248,-1.624 2.76265,3e-5 4.14398,2.24002 4.144,6.72 -2e-5,4.48001 -1.38135,6.72001 -4.144,6.72 -1.49335,10e-6 -2.57602,-0.54132 -3.248,-1.624 -0.63468,-1.08265 -0.95201,-2.78132 -0.952,-5.096 m -13.328,0 c 0,1.75468 0.29867,3.52802 0.896,5.32 0.63466,1.75468 1.624,3.39734 2.968,4.928 1.38133,1.53067 3.21066,2.76267 5.488,3.696 2.27732,0.93334 5.00265,1.4 8.176,1.4 3.17331,0 5.87998,-0.46666 8.12,-1.4 2.27731,-0.93333 4.08797,-2.16533 5.432,-3.696 1.3813,-1.53066 2.37063,-3.17332 2.968,-4.928 0.63463,-1.79198 0.95196,-3.56532 0.952,-5.32 -4e-5,-1.75465 -0.31737,-3.50931 -0.952,-5.264 -0.59737,-1.79197 -1.5867,-3.45331 -2.968,-4.984 -1.34403,-1.53064 -3.15469,-2.76263 -5.432,-3.696 -2.24002,-0.9333 -4.94669,-1.39997 -8.12,-1.4 -3.17335,3e-5 -5.89868,0.4667 -8.176,1.4 -2.27734,0.93337 -4.10667,2.16536 -5.488,3.696 -1.344,1.53069 -2.33334,3.19203 -2.968,4.984 -0.59733,1.75469 -0.896,3.50935 -0.896,5.264"
         style="font-variant:normal;font-weight:900;font-stretch:normal;font-family:Syntax-UltraBlack;-inkscape-font-specification:Syntax-UltraBlack Heavy"
         id="path3082" />
      <path
         d="m 590.8856,705.4696 13.048,0 0.112,-18.088 c 0.55998,-0.37331 1.15732,-0.67198 1.792,-0.896 0.63465,-0.26131 1.21332,-0.39198 1.736,-0.392 0.78398,2e-5 1.36265,0.22402 1.736,0.672 0.37331,0.41069 0.55998,1.15736 0.56,2.24 -2e-5,1.56802 -0.0187,3.09868 -0.056,4.592 -2e-5,1.49335 -0.0187,3.43468 -0.056,5.824 l -0.056,6.048 13.104,0 0.112,-18.088 c 0.55997,-0.37331 1.1573,-0.67198 1.792,-0.896 0.63463,-0.26131 1.2133,-0.39198 1.736,-0.392 0.78396,2e-5 1.36263,0.22402 1.736,0.672 0.37329,0.41069 0.55996,1.15736 0.56,2.24 -4e-5,1.56802 -0.0187,3.09868 -0.056,4.592 -4e-5,1.49335 -0.0187,3.43468 -0.056,5.824 l -0.056,6.048 12.936,0 0.112,-9.52 c 0.0373,-2.87465 0.056,-5.15198 0.056,-6.832 0.0373,-1.71731 0.056,-3.24798 0.056,-4.592 -5e-5,-1.71731 -0.26139,-3.15464 -0.784,-4.312 -0.52272,-1.1573 -1.21338,-2.0533 -2.072,-2.688 -0.85872,-0.67197 -1.75471,-1.11997 -2.688,-1.344 -0.93338,-0.2613 -1.84805,-0.39197 -2.744,-0.392 -0.82138,3e-5 -1.58671,0.056 -2.296,0.168 -0.70937,0.11203 -1.47471,0.31737 -2.296,0.616 -0.82137,0.2987 -1.7547,0.70937 -2.8,1.232 -1.00804,0.5227 -2.22137,1.1947 -3.64,2.016 -1.60537,-2.57597 -4.01336,-3.86397 -7.224,-3.864 -1.60536,3e-5 -3.17336,0.28003 -4.704,0.84 -1.49335,0.5227 -3.58402,1.5867 -6.272,3.192 l 0.112,-3.192 -13.216,0 -0.224,28.672"
         style="font-variant:normal;font-weight:900;font-stretch:normal;font-family:Syntax-UltraBlack;-inkscape-font-specification:Syntax-UltraBlack Heavy"
         id="path3084" />
      <path
         d="m 673.4856,695.8376 c -1.97869,0.63468 -3.78936,1.13868 -5.432,1.512 -1.60535,0.33601 -2.91202,0.50401 -3.92,0.504 -1.71735,10e-6 -3.17335,-0.33599 -4.368,-1.008 -1.15735,-0.70932 -1.81068,-1.82932 -1.96,-3.36 l 20.16,0 c -3e-5,-2.50131 -0.33603,-4.81598 -1.008,-6.944 -0.6347,-2.16531 -1.5867,-4.05064 -2.856,-5.656 -1.26936,-1.6053 -2.83736,-2.85597 -4.704,-3.752 -1.86669,-0.89597 -3.97602,-1.34397 -6.328,-1.344 -3.17335,3e-5 -5.91735,0.4667 -8.232,1.4 -2.27734,0.93337 -4.10667,2.16536 -5.488,3.696 -1.344,1.53069 -2.33334,3.19203 -2.968,4.984 -0.59733,1.75469 -0.896,3.50935 -0.896,5.264 0,1.75468 0.29867,3.52802 0.896,5.32 0.63466,1.75468 1.624,3.39734 2.968,4.928 1.38133,1.53067 3.21066,2.76267 5.488,3.696 2.31465,0.93334 5.05865,1.4 8.232,1.4 1.23198,0 3.04265,-0.24266 5.432,-0.728 2.38931,-0.448 4.90931,-1.13866 7.56,-2.072 l -2.576,-7.84 m -15.68,-8.064 c 0.14932,-1.49331 0.65332,-2.74398 1.512,-3.752 0.89598,-1.00797 2.07198,-1.51197 3.528,-1.512 1.45598,3e-5 2.63198,0.50403 3.528,1.512 0.93331,1.00802 1.47464,2.25869 1.624,3.752 l -10.192,0"
         style="font-variant:normal;font-weight:900;font-stretch:normal;font-family:Syntax-UltraBlack;-inkscape-font-specification:Syntax-UltraBlack Heavy"
         id="path3086" />
      <path
         d="m 678.54398,686.7656 4.032,0 0,0.336 -0.056,3.752 c -1e-5,0.33602 -1e-5,1.36268 0,3.08 -0.0373,1.19468 -0.056,2.27735 -0.056,3.248 -10e-6,3.24801 0.82132,5.61867 2.464,7.112 1.64265,1.456 4.03199,2.184 7.168,2.184 1.64265,0 3.49065,-0.14933 5.544,-0.448 2.05331,-0.26133 3.69597,-0.57866 4.928,-0.952 l -1.008,-9.576 c -0.37336,10e-6 -0.91469,0.0373 -1.624,0.112 -0.74669,0.0747 -1.26936,0.11201 -1.568,0.112 -0.85869,10e-6 -1.54936,-0.22399 -2.072,-0.672 -0.52269,-0.44798 -0.78402,-1.23198 -0.784,-2.352 -2e-5,-0.85865 0.0186,-1.81065 0.056,-2.856 -2e-5,-1.53065 -2e-5,-2.44531 0,-2.744 l 0,-0.336 7.392,0 0,-9.968 -7.28,0 0.112,-10.08 -12.992,0 -0.112,10.08 -4.144,0 0,9.968"
         style="font-variant:normal;font-weight:900;font-stretch:normal;font-family:Syntax-UltraBlack;-inkscape-font-specification:Syntax-UltraBlack Heavy"
         id="path3088" />
      <path
         d="m 732.5481,695.8376 c -1.97869,0.63468 -3.78936,1.13868 -5.432,1.512 -1.60535,0.33601 -2.91202,0.50401 -3.92,0.504 -1.71735,10e-6 -3.17335,-0.33599 -4.368,-1.008 -1.15735,-0.70932 -1.81068,-1.82932 -1.96,-3.36 l 20.16,0 c -3e-5,-2.50131 -0.33603,-4.81598 -1.008,-6.944 -0.6347,-2.16531 -1.5867,-4.05064 -2.856,-5.656 -1.26936,-1.6053 -2.83736,-2.85597 -4.704,-3.752 -1.86669,-0.89597 -3.97602,-1.34397 -6.328,-1.344 -3.17335,3e-5 -5.91735,0.4667 -8.232,1.4 -2.27734,0.93337 -4.10667,2.16536 -5.488,3.696 -1.344,1.53069 -2.33334,3.19203 -2.968,4.984 -0.59733,1.75469 -0.896,3.50935 -0.896,5.264 0,1.75468 0.29867,3.52802 0.896,5.32 0.63466,1.75468 1.624,3.39734 2.968,4.928 1.38133,1.53067 3.21066,2.76267 5.488,3.696 2.31465,0.93334 5.05865,1.4 8.232,1.4 1.23198,0 3.04265,-0.24266 5.432,-0.728 2.38931,-0.448 4.90931,-1.13866 7.56,-2.072 l -2.576,-7.84 m -15.68,-8.064 c 0.14932,-1.49331 0.65332,-2.74398 1.512,-3.752 0.89598,-1.00797 2.07198,-1.51197 3.528,-1.512 1.45598,3e-5 2.63198,0.50403 3.528,1.512 0.93331,1.00802 1.47464,2.25869 1.624,3.752 l -10.192,0"
         style="font-variant:normal;font-weight:900;font-stretch:normal;font-family:Syntax-UltraBlack;-inkscape-font-specification:Syntax-UltraBlack Heavy"
         id="path3090" />
      <path
         d="m 740.29448,705.4696 13.048,0 0.112,-14 c 1.04531,-1.60531 2.20264,-2.70665 3.472,-3.304 1.26931,-0.63464 3.06131,-0.95198 5.376,-0.952 l 0.112,-11.424 c -2.61336,0.0747 -4.64802,0.5787 -6.104,1.512 -1.41869,0.89603 -2.59469,2.44536 -3.528,4.648 l -0.112,-0.112 0.056,-5.04 -12.208,0 -0.224,28.672"
         style="font-variant:normal;font-weight:900;font-stretch:normal;font-family:Syntax-UltraBlack;-inkscape-font-specification:Syntax-UltraBlack Heavy"
         id="path3092" />
    </g>
  </g>
</svg>
